<mxfile host="app.diagrams.net" agent="Mozilla/5.0 (Windows NT 10.0; Win64; x64; rv:137.0) Gecko/20100101 Firefox/137.0" version="26.2.14">
  <diagram name="Page-1" id="c2RrNnLsDapVxzxUkUCF">
    <mxGraphModel dx="2063" dy="738" grid="1" gridSize="10" guides="1" tooltips="1" connect="1" arrows="1" fold="1" page="1" pageScale="1" pageWidth="850" pageHeight="1100" math="0" shadow="0">
      <root>
        <mxCell id="0" />
        <mxCell id="1" parent="0" />
        <mxCell id="Y9hDRSrSCaZQf4_mvHso-1" value="Worker" style="rounded=0;whiteSpace=wrap;html=1;" vertex="1" parent="1">
          <mxGeometry x="10" y="40" width="100" height="40" as="geometry" />
        </mxCell>
        <mxCell id="Y9hDRSrSCaZQf4_mvHso-2" value="" style="endArrow=none;html=1;rounded=0;entryX=0.5;entryY=1;entryDx=0;entryDy=0;" edge="1" parent="1" target="Y9hDRSrSCaZQf4_mvHso-1">
          <mxGeometry width="50" height="50" relative="1" as="geometry">
            <mxPoint x="64" y="310" as="sourcePoint" />
            <mxPoint x="450" y="340" as="targetPoint" />
          </mxGeometry>
        </mxCell>
        <mxCell id="Y9hDRSrSCaZQf4_mvHso-3" value="&lt;div&gt;&amp;lt;&amp;lt;boundary&amp;gt;&amp;gt;&lt;/div&gt;&lt;div&gt;LoginWindow&lt;/div&gt;" style="rounded=0;whiteSpace=wrap;html=1;" vertex="1" parent="1">
          <mxGeometry x="10" y="310" width="110" height="50" as="geometry" />
        </mxCell>
        <mxCell id="Y9hDRSrSCaZQf4_mvHso-4" value="" style="endArrow=classic;html=1;rounded=0;" edge="1" parent="1">
          <mxGeometry width="50" height="50" relative="1" as="geometry">
            <mxPoint x="70" y="110" as="sourcePoint" />
            <mxPoint x="70" y="170" as="targetPoint" />
          </mxGeometry>
        </mxCell>
        <mxCell id="Y9hDRSrSCaZQf4_mvHso-5" value="1. TypeUsernameAndPassword()" style="edgeLabel;html=1;align=center;verticalAlign=middle;resizable=0;points=[];" vertex="1" connectable="0" parent="Y9hDRSrSCaZQf4_mvHso-4">
          <mxGeometry relative="1" as="geometry">
            <mxPoint x="-1" as="offset" />
          </mxGeometry>
        </mxCell>
        <mxCell id="Y9hDRSrSCaZQf4_mvHso-6" value="" style="endArrow=classic;html=1;rounded=0;" edge="1" parent="1">
          <mxGeometry width="50" height="50" relative="1" as="geometry">
            <mxPoint x="70" y="190" as="sourcePoint" />
            <mxPoint x="70" y="240" as="targetPoint" />
          </mxGeometry>
        </mxCell>
        <mxCell id="Y9hDRSrSCaZQf4_mvHso-7" value="2. ChoseWorker()" style="edgeLabel;html=1;align=center;verticalAlign=middle;resizable=0;points=[];" vertex="1" connectable="0" parent="Y9hDRSrSCaZQf4_mvHso-6">
          <mxGeometry relative="1" as="geometry">
            <mxPoint as="offset" />
          </mxGeometry>
        </mxCell>
        <mxCell id="Y9hDRSrSCaZQf4_mvHso-8" value="Service" style="rounded=0;whiteSpace=wrap;html=1;" vertex="1" parent="1">
          <mxGeometry x="10" y="490" width="100" height="50" as="geometry" />
        </mxCell>
        <mxCell id="Y9hDRSrSCaZQf4_mvHso-9" value="" style="endArrow=none;html=1;rounded=0;entryX=0.5;entryY=1;entryDx=0;entryDy=0;exitX=0.5;exitY=0;exitDx=0;exitDy=0;" edge="1" parent="1" source="Y9hDRSrSCaZQf4_mvHso-8" target="Y9hDRSrSCaZQf4_mvHso-3">
          <mxGeometry width="50" height="50" relative="1" as="geometry">
            <mxPoint x="400" y="570" as="sourcePoint" />
            <mxPoint x="450" y="520" as="targetPoint" />
          </mxGeometry>
        </mxCell>
        <mxCell id="Y9hDRSrSCaZQf4_mvHso-10" value="" style="endArrow=classic;html=1;rounded=0;" edge="1" parent="1">
          <mxGeometry width="50" height="50" relative="1" as="geometry">
            <mxPoint x="70" y="390" as="sourcePoint" />
            <mxPoint x="70" y="460" as="targetPoint" />
          </mxGeometry>
        </mxCell>
        <mxCell id="Y9hDRSrSCaZQf4_mvHso-11" value="3. loginWorker(username : Sring, password : String)" style="edgeLabel;html=1;align=center;verticalAlign=middle;resizable=0;points=[];" vertex="1" connectable="0" parent="Y9hDRSrSCaZQf4_mvHso-10">
          <mxGeometry x="0.0286" y="4" relative="1" as="geometry">
            <mxPoint as="offset" />
          </mxGeometry>
        </mxCell>
        <mxCell id="Y9hDRSrSCaZQf4_mvHso-12" value="UserDBRepository" style="rounded=0;whiteSpace=wrap;html=1;" vertex="1" parent="1">
          <mxGeometry x="450" y="430" width="110" height="50" as="geometry" />
        </mxCell>
        <mxCell id="Y9hDRSrSCaZQf4_mvHso-13" value="" style="endArrow=none;html=1;rounded=0;exitX=1;exitY=0.5;exitDx=0;exitDy=0;entryX=0.5;entryY=1;entryDx=0;entryDy=0;" edge="1" parent="1" source="Y9hDRSrSCaZQf4_mvHso-8" target="Y9hDRSrSCaZQf4_mvHso-12">
          <mxGeometry width="50" height="50" relative="1" as="geometry">
            <mxPoint x="400" y="470" as="sourcePoint" />
            <mxPoint x="450" y="420" as="targetPoint" />
            <Array as="points">
              <mxPoint x="440" y="515" />
            </Array>
          </mxGeometry>
        </mxCell>
        <mxCell id="Y9hDRSrSCaZQf4_mvHso-14" value="" style="endArrow=classic;html=1;rounded=0;" edge="1" parent="1">
          <mxGeometry width="50" height="50" relative="1" as="geometry">
            <mxPoint x="180" y="510" as="sourcePoint" />
            <mxPoint x="380" y="510" as="targetPoint" />
          </mxGeometry>
        </mxCell>
        <mxCell id="Y9hDRSrSCaZQf4_mvHso-15" value="4.worker=findByUsernameAndPassword(: String, : String)" style="edgeLabel;html=1;align=center;verticalAlign=middle;resizable=0;points=[];" vertex="1" connectable="0" parent="Y9hDRSrSCaZQf4_mvHso-14">
          <mxGeometry x="-0.23" y="-3" relative="1" as="geometry">
            <mxPoint y="-13" as="offset" />
          </mxGeometry>
        </mxCell>
        <mxCell id="Y9hDRSrSCaZQf4_mvHso-16" value="&lt;div&gt;PresentWorker&lt;/div&gt;&lt;div&gt;Repo&lt;/div&gt;" style="rounded=0;whiteSpace=wrap;html=1;" vertex="1" parent="1">
          <mxGeometry x="500" y="510" width="100" height="40" as="geometry" />
        </mxCell>
        <mxCell id="Y9hDRSrSCaZQf4_mvHso-17" value="" style="endArrow=none;html=1;rounded=0;exitX=1;exitY=0.75;exitDx=0;exitDy=0;entryX=0;entryY=0.5;entryDx=0;entryDy=0;" edge="1" parent="1" source="Y9hDRSrSCaZQf4_mvHso-8" target="Y9hDRSrSCaZQf4_mvHso-16">
          <mxGeometry width="50" height="50" relative="1" as="geometry">
            <mxPoint x="400" y="590" as="sourcePoint" />
            <mxPoint x="450" y="540" as="targetPoint" />
          </mxGeometry>
        </mxCell>
        <mxCell id="Y9hDRSrSCaZQf4_mvHso-18" value="" style="endArrow=classic;html=1;rounded=0;" edge="1" parent="1">
          <mxGeometry width="50" height="50" relative="1" as="geometry">
            <mxPoint x="120" y="540" as="sourcePoint" />
            <mxPoint x="480" y="540" as="targetPoint" />
          </mxGeometry>
        </mxCell>
        <mxCell id="Y9hDRSrSCaZQf4_mvHso-19" value="5. save(presentWorker = new PresentWorker(worker))" style="edgeLabel;html=1;align=center;verticalAlign=middle;resizable=0;points=[];" vertex="1" connectable="0" parent="Y9hDRSrSCaZQf4_mvHso-18">
          <mxGeometry x="0.1667" y="-1" relative="1" as="geometry">
            <mxPoint x="-30" y="9" as="offset" />
          </mxGeometry>
        </mxCell>
        <mxCell id="Y9hDRSrSCaZQf4_mvHso-20" value="" style="endArrow=none;html=1;rounded=0;exitX=1;exitY=0.5;exitDx=0;exitDy=0;" edge="1" parent="1" source="Y9hDRSrSCaZQf4_mvHso-3" target="Y9hDRSrSCaZQf4_mvHso-21">
          <mxGeometry width="50" height="50" relative="1" as="geometry">
            <mxPoint x="400" y="410" as="sourcePoint" />
            <mxPoint x="360" y="335" as="targetPoint" />
          </mxGeometry>
        </mxCell>
        <mxCell id="Y9hDRSrSCaZQf4_mvHso-21" value="&amp;nbsp;WorkerWindow" style="rounded=0;whiteSpace=wrap;html=1;" vertex="1" parent="1">
          <mxGeometry x="290" y="380" width="100" height="35" as="geometry" />
        </mxCell>
        <mxCell id="Y9hDRSrSCaZQf4_mvHso-23" value="" style="endArrow=classic;html=1;rounded=0;" edge="1" parent="1">
          <mxGeometry width="50" height="50" relative="1" as="geometry">
            <mxPoint x="150" y="340" as="sourcePoint" />
            <mxPoint x="270" y="370" as="targetPoint" />
          </mxGeometry>
        </mxCell>
        <mxCell id="Y9hDRSrSCaZQf4_mvHso-24" value="6. show()" style="edgeLabel;html=1;align=center;verticalAlign=middle;resizable=0;points=[];" vertex="1" connectable="0" parent="Y9hDRSrSCaZQf4_mvHso-23">
          <mxGeometry x="0.3216" y="3" relative="1" as="geometry">
            <mxPoint x="-20" y="-17" as="offset" />
          </mxGeometry>
        </mxCell>
      </root>
    </mxGraphModel>
  </diagram>
</mxfile>
